<svg width="240" height="176" viewBox="0 0 240 176" fill="none" xmlns="http://www.w3.org/2000/svg">
  <defs>
    <linearGradient id="bg" x1="0" y1="0" x2="240" y2="176" gradientUnits="userSpaceOnUse">
      <stop stop-color="#e7ebee"/>
      <stop offset="1" stop-color="#aeb7bd"/>
    </linearGradient>
  </defs>
  <rect width="240" height="176" rx="10" fill="url(#bg)"/>
  <rect x="16" y="24" width="74" height="124" rx="5" fill="#1e252b"/>
  <rect x="24" y="36" width="54" height="72" rx="4" fill="#f0eee5"/>
  <rect x="31" y="45" width="40" height="53" rx="3" fill="#303b42"/>
  <path d="M21 119h64" stroke="#b78942" stroke-width="8" stroke-linecap="round"/>
  <path d="M112 24v123M144 24v123M176 24v123M208 24v123" stroke="#1b2227" stroke-width="5" stroke-linecap="round"/>
  <path d="M100 47h122M100 83h122M100 119h122" stroke="#7a4b28" stroke-width="7" stroke-linecap="round"/>
  <path d="M111 46h111M111 82h111M111 118h111" stroke="#d99a31" stroke-width="3" stroke-linecap="round"/>
  <path d="M128 30c6 25 4 81-5 115M160 30c7 26 3 80-4 115M194 30c5 29 4 82-4 115" stroke="#2362a3" stroke-width="5" stroke-linecap="round"/>
  <rect x="98" y="35" width="16" height="26" rx="3" fill="#123047"/>
  <rect x="98" y="73" width="16" height="25" rx="3" fill="#123047"/>
  <rect x="98" y="109" width="16" height="26" rx="3" fill="#123047"/>
  <rect x="14" y="24" width="210" height="124" fill="#fff" opacity=".12"/>
</svg>
